<?xml version="1.0" standalone="no"?>
<!DOCTYPE svg PUBLIC "-//W3C//DTD SVG 20010904//EN"
 "http://www.w3.org/TR/2001/REC-SVG-20010904/DTD/svg10.dtd">
<svg version="1.0" xmlns="http://www.w3.org/2000/svg"
 width="500.000000pt" height="500.000000pt" viewBox="0 0 500.000000 500.000000"
 preserveAspectRatio="xMidYMid meet">

<g transform="translate(0.000000,500.000000) scale(0.100000,-0.100000)"
fill="#000000" stroke="none">
<path d="M2860 3677 c0 -2 15 -16 33 -33 l32 -29 -29 33 c-28 30 -36 37 -36
29z"/>
<path d="M2010 3635 c-7 -9 -8 -15 -2 -15 5 0 12 7 16 15 3 8 4 15 2 15 -2 0
-9 -7 -16 -15z"/>
<path d="M2750 3625 c10 -12 10 -22 1 -43 -10 -25 -10 -26 4 -8 20 26 19 52
-1 60 -14 5 -15 4 -4 -9z"/>
<path d="M2407 3613 c-10 -10 -8 -53 2 -53 5 0 7 9 4 21 -4 12 0 25 8 30 8 5
9 9 3 9 -6 0 -14 -3 -17 -7z"/>
<path d="M3026 3547 c-3 -15 -16 -37 -28 -49 -11 -11 -14 -18 -7 -16 18 6 52
64 47 80 -3 7 -8 0 -12 -15z"/>
<path d="M1881 3548 c-1 -10 11 -30 27 -46 15 -15 19 -19 10 -7 -9 11 -21 31
-27 45 -7 17 -10 20 -10 8z"/>
<path d="M2941 3424 c0 -11 3 -14 6 -6 3 7 2 16 -1 19 -3 4 -6 -2 -5 -13z"/>
<path d="M2106 3414 c-5 -14 -4 -15 9 -4 17 14 19 20 6 20 -5 0 -12 -7 -15
-16z"/>
<path d="M2790 3426 c0 -2 8 -10 18 -17 15 -13 16 -12 3 4 -13 16 -21 21 -21
13z"/>
<path d="M2028 3403 c7 -3 16 -2 19 1 4 3 -2 6 -13 5 -11 0 -14 -3 -6 -6z"/>
<path d="M2878 3403 c7 -3 16 -2 19 1 4 3 -2 6 -13 5 -11 0 -14 -3 -6 -6z"/>
<path d="M1849 3378 c14 -19 66 -24 90 -9 10 6 0 8 -27 4 -28 -4 -48 -1 -59 8
-16 13 -17 12 -4 -3z"/>
<path d="M2015 3371 c-16 -4 -44 -15 -62 -24 -17 -9 -42 -16 -55 -15 -36 3
-112 -54 -223 -166 -110 -112 -176 -211 -231 -348 l-33 -83 -446 0 -445 0 0
-142 c0 -120 2 -143 15 -143 12 0 15 -17 15 -95 0 -78 -3 -95 -15 -95 -13 0
-15 -23 -15 -145 0 -114 3 -145 13 -145 7 0 88 15 180 34 91 18 168 29 169 25
2 -5 129 -52 283 -104 153 -53 285 -101 292 -107 18 -15 16 -47 -3 -55 -8 -3
-129 35 -269 86 -139 50 -259 91 -265 91 -9 0 -11 -12 -6 -42 4 -23 8 -43 9
-44 1 -2 124 -55 272 -118 301 -130 343 -139 390 -91 14 13 25 33 25 45 0 34
25 23 107 -48 43 -37 102 -83 131 -102 45 -29 51 -36 35 -42 -10 -4 -137 -37
-283 -73 -145 -36 -268 -69 -273 -74 -5 -5 -11 -26 -14 -48 -6 -47 13 -89 56
-126 l30 -25 278 89 c497 159 488 157 563 142 79 -15 297 -17 369 -3 49 9 65
6 264 -54 117 -35 304 -90 416 -122 l204 -58 28 33 c15 18 30 46 33 63 8 40
-10 105 -32 117 -9 4 -136 34 -282 65 -146 32 -273 60 -283 62 -13 4 2 18 57
54 40 26 105 78 143 114 42 40 82 68 100 72 29 6 31 3 44 -37 8 -23 26 -51 41
-62 l27 -20 268 27 c147 16 269 30 271 31 2 2 17 86 33 186 17 101 31 184 32
185 1 2 81 -13 177 -32 96 -18 181 -34 188 -34 9 0 12 43 12 180 0 99 -3 180
-7 180 -12 0 -135 20 -160 25 -20 5 -23 12 -23 49 0 35 4 45 20 49 19 5 20 14
20 141 l0 136 -180 0 -180 0 0 -131 c0 -122 1 -131 20 -136 14 -4 20 -14 20
-34 0 -35 -8 -40 -53 -32 -33 5 -37 9 -37 35 0 21 6 31 20 35 19 5 20 14 20
134 l0 129 -180 0 -180 0 -1 -27 c0 -19 -8 -6 -23 42 -32 99 -52 135 -77 135
-24 0 -23 -5 9 -87 12 -29 18 -54 14 -56 -4 -2 -22 -3 -40 -3 -31 1 -35 5 -58
61 -28 69 -46 90 -68 82 -11 -5 -16 -25 -19 -79 l-3 -73 -2 73 c-3 110 -21 86
-24 -33 l-3 -105 -32 22 c-32 23 -33 25 -33 100 l0 77 33 4 c22 3 16 4 -20 5
l-52 2 -4 -67 -3 -68 -2 68 -2 67 -32 -1 c-24 -1 -27 -3 -10 -6 20 -4 22 -10
22 -64 l0 -59 -35 0 -35 0 0 65 c0 58 -2 65 -20 65 -18 0 -20 -7 -20 -65 0
-36 -3 -65 -7 -65 -5 0 -6 25 -5 56 5 65 -6 83 -34 57 -11 -10 -14 -14 -7 -9
10 7 13 -4 13 -48 0 -56 0 -56 -30 -56 -23 0 -30 4 -30 20 0 26 -15 26 -33 0
-14 -20 -25 -20 -342 -21 -263 0 -330 2 -336 13 -4 7 -15 22 -23 33 -15 19
-15 19 -16 -12 0 -18 -4 -33 -10 -33 -5 0 -10 20 -10 44 0 29 -9 59 -25 87
-14 24 -25 40 -25 34 1 -5 7 -21 15 -35 8 -14 14 -49 15 -77 l0 -53 -34 0 -34
0 0 148 c0 90 3 135 8 117 11 -43 11 -22 0 73 -8 75 -7 86 9 110 22 31 36 72
25 72 -4 0 -28 -12 -53 -27 -160 -93 -297 -244 -378 -419 -33 -74 -34 -74 -73
-74 l-39 0 15 42 c23 67 99 203 147 266 91 117 257 251 371 298 25 11 46 22
46 27 0 4 -1 7 -2 6 -2 -1 -16 -4 -33 -8z m-88 -523 c-1 -62 -3 -14 -3 107 0
121 2 172 3 113 2 -59 2 -158 0 -220z m-27 82 l0 -190 -35 0 -35 0 0 164 c0
158 1 166 22 180 12 8 25 13 30 10 5 -3 8 -2 7 3 -2 13 1 23 6 23 3 0 5 -85 5
-190z m-113 -112 c-1 -46 -3 -11 -3 77 0 88 2 125 3 83 2 -42 2 -114 0 -160z
m-27 42 l0 -120 -35 0 -35 0 0 78 c0 72 3 83 30 120 17 23 32 42 35 42 3 0 5
-54 5 -120z m-113 -87 c-2 -21 -4 -6 -4 32 0 39 2 55 4 38 2 -18 2 -50 0 -70z
m653 -109 c0 -14 -4 -23 -10 -19 -5 3 -10 15 -10 26 0 10 5 19 10 19 6 0 10
-12 10 -26z m798 -29 l42 -30 -2 -133 c-2 -72 1 -131 6 -129 5 2 31 76 59 165
l51 162 75 0 76 0 50 -180 c44 -159 52 -180 73 -185 12 -3 27 -3 32 0 6 4 10
55 10 116 0 102 -1 109 -20 109 -18 0 -20 7 -20 70 l0 70 120 0 120 0 0 -70
c0 -63 -2 -70 -20 -70 -19 0 -20 -7 -20 -126 0 -96 3 -125 13 -122 6 3 13 17
15 33 4 27 4 28 55 21 29 -3 64 -6 80 -6 24 0 27 -4 27 -35 0 -19 5 -35 10
-35 6 0 10 50 10 130 0 123 -1 130 -20 130 -18 0 -20 7 -20 75 l0 75 120 0
120 0 0 -75 c0 -68 -2 -75 -20 -75 -19 0 -20 -7 -20 -145 0 -122 2 -145 15
-145 11 0 15 11 15 36 0 32 2 36 23 31 12 -3 48 -9 80 -12 l57 -7 0 -120 c0
-119 0 -120 -22 -115 -12 4 -80 16 -150 29 l-128 23 0 43 0 43 -44 -6 -45 -7
-4 63 -3 64 -2 -68 c-1 -44 -6 -69 -14 -71 -92 -24 -110 -25 -210 -11 -57 7
-179 21 -273 29 -93 9 -198 19 -232 22 -53 5 -63 9 -63 24 0 19 -1 19 -32 1
-31 -17 -49 -18 -318 -8 -270 10 -854 -2 -1103 -22 -75 -6 -77 -5 -77 17 0 27
-11 28 -35 2 -23 -25 -67 -37 -172 -46 -73 -6 -84 -4 -111 15 -38 27 -40 27
-44 -6 -3 -27 -6 -28 -98 -40 -52 -7 -105 -15 -117 -18 -22 -5 -23 -3 -23 71
0 67 2 76 20 81 19 5 20 14 20 129 0 76 -4 124 -10 124 -6 0 -10 -28 -10 -63
0 -62 -1 -64 -47 -110 -43 -41 -54 -47 -105 -53 -52 -6 -58 -9 -58 -30 0 -15
6 -24 15 -24 12 0 15 -15 15 -78 l0 -78 -93 -18 c-50 -9 -102 -20 -114 -23
-22 -5 -23 -3 -23 76 0 70 3 82 20 91 19 10 20 21 20 151 0 132 -1 141 -20
146 -18 5 -20 14 -20 84 l0 79 163 0 c161 0 164 0 187 -25 13 -14 27 -25 32
-25 4 0 8 11 8 25 l0 25 120 0 120 0 0 -26 0 -26 34 26 c33 24 41 26 146 26
105 0 113 -2 146 -26 l34 -26 0 26 0 26 325 0 325 0 0 -65 c0 -51 -3 -65 -15
-65 -12 0 -15 -17 -15 -95 0 -57 4 -95 10 -95 6 0 10 11 10 25 0 25 1 25 80
25 79 0 80 0 80 -25 0 -14 5 -25 10 -25 6 0 10 38 10 95 0 78 -3 95 -15 95
-12 0 -15 14 -15 68 l0 67 347 -5 348 -5 43 -30z m-2188 -466 c0 -62 -2 -70
-17 -67 -14 2 -19 15 -21 57 -4 63 2 81 23 81 12 0 15 -14 15 -71z m610 -104
c0 -30 -2 -55 -4 -55 -2 0 -11 21 -21 46 -15 39 -15 48 -4 55 25 16 29 10 29
-46z m160 24 c0 -25 3 -29 13 -20 8 6 16 9 19 6 3 -3 13 5 24 17 l19 23 -25
-20 -25 -20 19 23 c19 22 23 22 243 22 l223 0 0 -29 c0 -39 23 -45 51 -13 l24
27 -27 -24 c-16 -14 -28 -20 -28 -14 0 26 64 51 125 48 62 -2 98 -12 90 -24
-2 -4 2 -8 10 -8 8 0 15 9 15 19 0 15 8 18 49 18 l50 0 3 -47 c3 -44 5 -48 31
-51 26 -3 27 -2 27 47 l0 51 50 0 50 0 0 -143 0 -143 -50 0 -49 0 -3 45 c-3
42 -5 46 -28 46 -23 0 -25 -4 -28 -45 l-3 -45 -49 -1 c-42 0 -50 2 -50 18 0
17 -2 17 -31 -4 -42 -31 -135 -32 -176 -2 -39 28 -63 80 -63 137 0 46 -1 47
-30 47 l-30 0 0 -98 0 -98 -47 0 -48 1 3 105 c2 58 -1 101 -5 95 -4 -5 -24
-10 -43 -10 l-35 0 -3 -95 -3 -96 -102 1 c-86 1 -102 4 -102 18 0 8 -4 19 -9
24 -5 5 -6 2 -1 -7 8 -13 7 -13 -8 -1 -20 16 -23 36 -4 25 8 -5 8 -3 -2 9 -19
24 -31 12 -31 -34 0 -38 -1 -39 -31 -35 -45 5 -59 45 -62 178 l-2 108 48 0
c46 0 47 -1 47 -31z m1389 5 c11 -15 18 -30 16 -34 -3 -5 0 -12 6 -16 8 -5 10
-2 5 7 -4 8 -1 6 7 -3 22 -27 27 -22 27 27 l0 45 50 0 50 0 0 -142 0 -143 -45
-1 c-25 0 -45 3 -45 8 0 5 6 6 13 2 7 -4 9 -3 4 2 -5 5 -13 9 -17 9 -14 0 -80
76 -80 92 0 9 5 11 13 7 7 -5 7 -1 -3 12 -8 10 -16 21 -18 24 -2 3 -1 -31 3
-75 l7 -80 -165 0 -166 0 -3 143 -3 142 162 0 162 0 20 -26z m321 14 c0 -7 -7
-31 -16 -54 -11 -29 -25 -46 -50 -58 -19 -9 -37 -16 -39 -16 -12 0 -3 52 15
94 19 42 24 46 55 46 21 0 35 -5 35 -12z m545 -20 c-3 -18 -19 -112 -34 -208
l-27 -175 -195 -22 c-238 -27 -306 -30 -319 -17 -6 6 -23 59 -39 119 -32 117
-30 144 11 166 23 12 571 167 596 168 9 1 11 -8 7 -31z m-2504 -15 c6 -21 20
-55 31 -76 11 -22 18 -40 16 -42 -5 -5 -405 99 -414 108 -4 4 4 7 17 8 13 0
85 9 159 19 188 25 176 26 191 -17z m2149 21 l55 -7 -103 -29 c-57 -16 -105
-28 -108 -26 -2 2 2 21 8 42 12 37 13 38 52 32 23 -3 66 -8 96 -12z m-2292
-125 c144 -37 253 -70 268 -81 22 -18 24 -26 24 -113 0 -163 -15 -164 -366
-15 -142 60 -262 114 -268 120 -29 29 27 15 244 -64 133 -47 249 -86 257 -86
42 0 66 57 43 99 -6 12 -101 50 -295 116 -180 61 -285 102 -285 111 0 10 14 9
68 -6 37 -10 176 -46 310 -81z m892 -218 l0 -79 -27 7 c-24 6 -28 13 -31 49
-3 39 -1 42 22 42 22 0 26 4 26 30 0 17 2 30 5 30 3 0 5 -36 5 -79z m37 -58
c-2 -21 -4 -4 -4 37 0 41 2 58 4 38 2 -21 2 -55 0 -75z m1068 77 c0 -10 -91
-42 -324 -112 l-325 -97 -85 21 c-47 12 -81 23 -75 25 40 13 782 181 794 180
8 -1 15 -9 15 -17z m-987 -154 c338 -79 617 -147 620 -151 15 -14 5 -76 -15
-97 l-21 -21 -634 195 c-563 172 -633 196 -636 215 -3 20 0 20 35 12 21 -5
314 -73 651 -153z m24 87 c3 -60 2 -64 -17 -59 -11 3 -26 6 -32 6 -9 0 -13 19
-13 63 l0 64 29 -5 c29 -4 29 -6 33 -69z m-422 52 c0 -19 -19 -19 -44 0 -19
14 -18 15 12 15 22 0 32 -5 32 -15z m27 -17 c-3 -7 -5 -2 -5 12 0 14 2 19 5
13 2 -7 2 -19 0 -25z m113 2 c0 -22 -5 -30 -17 -29 -31 1 -48 13 -49 37 -1 19
4 22 32 22 31 0 34 -3 34 -30z m40 -5 c0 -19 -4 -35 -10 -35 -5 0 -10 16 -10
35 0 19 5 35 10 35 6 0 10 -16 10 -35z m277 -72 c-2 -21 -4 -4 -4 37 0 41 2
58 4 38 2 -21 2 -55 0 -75z m111 40 c-3 -67 -3 -67 -35 -74 l-33 -6 0 73 0 74
35 0 36 0 -3 -67z m29 -30 c-2 -21 -4 -6 -4 32 0 39 2 55 4 38 2 -18 2 -50 0
-70z m113 47 c0 -27 -1 -50 -3 -50 -1 0 -17 -4 -35 -9 l-32 -10 0 60 0 59 35
0 35 0 0 -50z m27 -27 c-2 -16 -4 -3 -4 27 0 30 2 43 4 28 2 -16 2 -40 0 -55z
m113 42 c0 -19 -3 -35 -7 -35 -5 0 -18 -3 -29 -6 -19 -5 -22 -1 -26 35 -3 40
-3 41 29 41 31 0 33 -2 33 -35z m40 5 c0 -16 -4 -30 -10 -30 -5 0 -10 14 -10
30 0 17 5 30 10 30 6 0 10 -13 10 -30z m100 10 c0 -11 -6 -20 -14 -20 -8 0
-21 -3 -30 -6 -12 -5 -16 0 -16 20 0 22 4 26 30 26 23 0 30 -4 30 -20z m37 -2
c-3 -8 -6 -5 -6 6 -1 11 2 17 5 13 3 -3 4 -12 1 -19z m93 18 c0 -2 -11 -6 -25
-8 -14 -3 -25 -1 -25 3 0 5 11 9 25 9 14 0 25 -2 25 -4z m85 -94 c-43 -38
-112 -86 -172 -121 l-71 -42 -61 12 c-34 7 -61 17 -61 22 0 5 6 7 14 4 9 -4
17 3 21 16 4 14 8 17 12 10 5 -15 33 -18 33 -4 0 11 84 47 190 82 92 30 109
34 95 21z m-1062 -101 c5 -5 15 -7 22 -5 7 3 15 -1 18 -9 4 -11 -8 -17 -46
-25 -50 -10 -54 -9 -117 28 -36 21 -81 52 -100 69 l-35 30 124 -39 c69 -22
129 -44 134 -49z m227 -62 c44 -12 80 -25 80 -29 0 -11 -357 -113 -374 -107
-22 9 -38 54 -31 88 6 25 13 28 103 49 53 12 102 23 107 25 6 2 15 2 22 0 7
-2 48 -14 93 -26z m201 -60 c24 -7 48 -16 54 -21 11 -9 -169 -11 -204 -1 -21
5 -17 8 30 24 30 9 59 15 65 14 7 -2 32 -9 55 -16z m794 -50 c256 -54 275 -62
275 -118 0 -15 -4 -21 -8 -15 -4 7 -108 42 -232 78 -304 91 -320 96 -320 108
0 6 10 8 23 4 12 -3 130 -28 262 -57z m-1347 -50 c-4 -12 -481 -169 -514 -169
-19 0 -41 18 -57 47 -5 7 -1 10 10 7 10 -3 137 24 283 60 301 73 283 70 278
55z"/>
<path d="M993 2600 c0 -25 2 -35 4 -22 2 12 2 32 0 45 -2 12 -4 2 -4 -23z"/>
<path d="M1183 2605 c0 -22 2 -30 4 -17 2 12 2 30 0 40 -3 9 -5 -1 -4 -23z"/>
<path d="M1259 2623 c-13 -16 -12 -17 4 -4 9 7 17 15 17 17 0 8 -8 3 -21 -13z"/>
<path d="M1500 2636 c0 -2 8 -10 18 -17 15 -13 16 -12 3 4 -13 16 -21 21 -21
13z"/>
<path d="M1593 2605 c0 -22 2 -30 4 -17 2 12 2 30 0 40 -3 9 -5 -1 -4 -23z"/>
<path d="M2012 2610 c0 -19 2 -27 5 -17 2 9 2 25 0 35 -3 9 -5 1 -5 -18z"/>
<path d="M2382 2610 c0 -19 2 -27 5 -17 2 9 2 25 0 35 -3 9 -5 1 -5 -18z"/>
<path d="M2752 2610 c0 -19 2 -27 5 -17 2 9 2 25 0 35 -3 9 -5 1 -5 -18z"/>
<path d="M3553 2605 c0 -22 2 -30 4 -17 2 12 2 30 0 40 -3 9 -5 -1 -4 -23z"/>
<path d="M3743 2600 c0 -25 2 -35 4 -22 2 12 2 32 0 45 -2 12 -4 2 -4 -23z"/>
<path d="M3923 2600 c0 -25 2 -35 4 -22 2 12 2 32 0 45 -2 12 -4 2 -4 -23z"/>
<path d="M4113 2595 c0 -27 2 -38 4 -22 2 15 2 37 0 50 -2 12 -4 0 -4 -28z"/>
<path d="M920 2616 c0 -2 8 -10 18 -17 15 -13 16 -12 3 4 -13 16 -21 21 -21
13z"/>
<path d="M3113 2525 c0 -38 2 -53 4 -32 2 20 2 52 0 70 -2 17 -4 1 -4 -38z"/>
<path d="M1214 2410 c0 -96 2 -136 3 -87 2 48 2 126 0 175 -1 48 -3 8 -3 -88z"/>
<path d="M1562 2550 c0 -19 2 -27 5 -17 2 9 2 25 0 35 -3 9 -5 1 -5 -18z"/>
<path d="M963 2490 c0 -47 2 -66 4 -42 2 23 2 61 0 85 -2 23 -4 4 -4 -43z"/>
<path d="M1784 2548 l-19 -23 23 19 c21 18 27 26 19 26 -2 0 -12 -10 -23 -22z"/>
<path d="M1938 2563 c6 -2 18 -2 25 0 6 3 1 5 -13 5 -14 0 -19 -2 -12 -5z"/>
<path d="M2027 2562 c8 -5 13 -47 16 -127 l3 -120 2 128 c2 115 0 127 -15 127
-13 0 -14 -3 -6 -8z"/>
<path d="M2162 2453 l2 -118 3 110 c3 72 8 112 16 117 8 5 7 8 -5 8 -16 0 -18
-11 -16 -117z"/>
<path d="M2398 2563 c8 -3 12 -37 12 -118 0 -81 -4 -115 -12 -118 -8 -3 -6 -6
5 -6 15 -1 17 11 17 124 0 113 -2 125 -17 124 -11 0 -13 -3 -5 -6z"/>
<path d="M2548 2563 c12 -2 32 -2 45 0 12 2 2 4 -23 4 -25 0 -35 -2 -22 -4z"/>
<path d="M2923 2563 c15 -2 39 -2 55 0 15 2 2 4 -28 4 -30 0 -43 -2 -27 -4z"/>
<path d="M1144 2410 c0 -85 2 -120 3 -77 2 42 2 112 0 155 -1 42 -3 7 -3 -78z"/>
<path d="M1358 2553 c17 -2 47 -2 65 0 17 2 3 4 -33 4 -36 0 -50 -2 -32 -4z"/>
<path d="M3704 2410 c0 -85 2 -120 3 -77 2 42 2 112 0 155 -1 42 -3 7 -3 -78z"/>
<path d="M803 2543 c9 -2 25 -2 35 0 9 3 1 5 -18 5 -19 0 -27 -2 -17 -5z"/>
<path d="M1741 2534 c0 -11 3 -14 6 -6 3 7 2 16 -1 19 -3 4 -6 -2 -5 -13z"/>
<path d="M1899 2533 c-13 -16 -12 -17 4 -4 9 7 17 15 17 17 0 8 -8 3 -21 -13z"/>
<path d="M2533 2515 c0 -22 2 -30 4 -17 2 12 2 30 0 40 -3 9 -5 -1 -4 -23z"/>
<path d="M2784 2445 c0 -60 1 -84 3 -52 2 32 2 81 0 110 -2 29 -3 3 -3 -58z"/>
<path d="M2902 2518 l-2 -38 53 2 52 2 -47 3 c-44 4 -47 6 -51 36 -4 31 -4 31
-5 -5z"/>
<path d="M2992 2525 c0 -16 2 -22 5 -12 2 9 2 23 0 30 -3 6 -5 -1 -5 -18z"/>
<path d="M618 2533 c7 -3 16 -2 19 1 4 3 -2 6 -13 5 -11 0 -14 -3 -6 -6z"/>
<path d="M753 2485 c0 -33 2 -45 4 -27 2 18 2 45 0 60 -2 15 -4 0 -4 -33z"/>
<path d="M1590 2511 l0 -31 -83 0 c-80 0 -84 1 -83 23 1 18 -5 22 -36 25 l-38
3 0 -111 0 -111 38 3 c33 3 37 6 37 31 -1 21 4 27 21 27 11 0 49 3 83 6 61 7
61 7 61 -20 0 -14 5 -26 10 -26 6 0 10 40 10 99 0 56 -4 103 -10 106 -6 4 -10
-7 -10 -24z"/>
<path d="M1901 2490 l-42 -50 42 -50 c41 -49 64 -59 103 -44 13 5 16 24 16
100 l0 94 -38 0 c-34 0 -44 -6 -81 -50z"/>
<path d="M2560 2525 c0 -8 5 -15 10 -15 6 0 10 7 10 15 0 8 -4 15 -10 15 -5 0
-10 -7 -10 -15z"/>
<path d="M2740 2515 c0 -21 -5 -25 -30 -25 -29 0 -30 -2 -30 -45 0 -43 1 -45
30 -45 25 0 30 -4 30 -25 0 -14 5 -25 10 -25 6 0 10 38 10 95 0 57 -4 95 -10
95 -5 0 -10 -11 -10 -25z"/>
<path d="M2930 2525 c0 -8 9 -15 20 -15 11 0 20 7 20 15 0 8 -9 15 -20 15 -11
0 -20 -7 -20 -15z"/>
<path d="M1170 2410 c0 -73 4 -120 10 -120 6 0 10 47 10 120 0 73 -4 120 -10
120 -6 0 -10 -47 -10 -120z"/>
<path d="M780 2481 c0 -34 3 -38 20 -34 15 4 20 14 20 39 0 27 -4 34 -20 34
-17 0 -20 -7 -20 -39z"/>
<path d="M2643 2513 c15 -2 37 -2 50 0 12 2 0 4 -28 4 -27 0 -38 -2 -22 -4z"/>
<path d="M1503 2503 c9 -2 25 -2 35 0 9 3 1 5 -18 5 -19 0 -27 -2 -17 -5z"/>
<path d="M1854 2478 l-19 -23 23 19 c21 18 27 26 19 26 -2 0 -12 -10 -23 -22z"/>
<path d="M2653 2445 c0 -22 2 -30 4 -17 2 12 2 30 0 40 -3 9 -5 -1 -4 -23z"/>
<path d="M3321 2454 c0 -11 3 -14 6 -6 3 7 2 16 -1 19 -3 4 -6 -2 -5 -13z"/>
<path d="M813 2423 c9 -2 23 -2 30 0 6 3 -1 5 -18 5 -16 0 -22 -2 -12 -5z"/>
<path d="M1845 2410 c10 -11 20 -20 23 -20 3 0 -3 9 -13 20 -10 11 -20 20 -23
20 -3 0 3 -9 13 -20z"/>
<path d="M3111 2364 c0 -32 4 -77 8 -99 6 -27 7 -8 3 55 -5 108 -12 133 -11
44z"/>
<path d="M2532 2373 c1 -37 1 -37 5 -6 4 31 6 32 56 36 l52 3 -57 2 -58 2 2
-37z"/>
<path d="M2903 2360 c0 -25 2 -35 4 -22 2 12 2 32 0 45 -2 12 -4 2 -4 -23z"/>
<path d="M2938 2393 c12 -2 32 -2 45 0 12 2 2 4 -23 4 -25 0 -35 -2 -22 -4z"/>
<path d="M908 2355 c-21 -19 -34 -35 -30 -35 5 0 23 16 42 35 44 45 36 45 -12
0z"/>
<path d="M1743 2353 c0 -16 1 -20 4 -10 3 10 9 14 16 10 7 -4 6 1 -2 10 -17
22 -16 22 -18 -10z"/>
<path d="M2268 2373 c12 -2 32 -2 45 0 12 2 2 4 -23 4 -25 0 -35 -2 -22 -4z"/>
<path d="M2560 2365 c0 -8 5 -15 10 -15 6 0 10 7 10 15 0 8 -4 15 -10 15 -5 0
-10 -7 -10 -15z"/>
<path d="M2643 2373 c15 -2 37 -2 50 0 12 2 0 4 -28 4 -27 0 -38 -2 -22 -4z"/>
<path d="M2992 2355 c0 -16 2 -22 5 -12 2 9 2 23 0 30 -3 6 -5 -1 -5 -18z"/>
<path d="M2230 2351 c0 -15 -8 -21 -37 -24 l-38 -4 43 -1 c39 -2 42 0 42 23 0
14 -2 25 -5 25 -3 0 -5 -9 -5 -19z"/>
<path d="M2930 2355 c0 -8 9 -15 20 -15 11 0 20 7 20 15 0 8 -9 15 -20 15 -11
0 -20 -7 -20 -15z"/>
<path d="M1528 2353 c7 -3 16 -2 19 1 4 3 -2 6 -13 5 -11 0 -14 -3 -6 -6z"/>
<path d="M1905 2340 c10 -11 20 -20 23 -20 3 0 -3 9 -13 20 -10 11 -20 20 -23
20 -3 0 3 -9 13 -20z"/>
<path d="M1563 2305 c0 -22 2 -30 4 -17 2 12 2 30 0 40 -3 9 -5 -1 -4 -23z"/>
<path d="M2548 2323 c12 -2 32 -2 45 0 12 2 2 4 -23 4 -25 0 -35 -2 -22 -4z"/>
<path d="M793 2313 c9 -2 25 -2 35 0 9 3 1 5 -18 5 -19 0 -27 -2 -17 -5z"/>
<path d="M2963 2313 c9 -2 23 -2 30 0 6 3 -1 5 -18 5 -16 0 -22 -2 -12 -5z"/>
<path d="M3318 2313 c12 -2 30 -2 40 0 9 3 -1 5 -23 4 -22 0 -30 -2 -17 -4z"/>
<path d="M3798 2313 c6 -2 18 -2 25 0 6 3 1 5 -13 5 -14 0 -19 -2 -12 -5z"/>
<path d="M1618 2303 c7 -3 16 -2 19 1 4 3 -2 6 -13 5 -11 0 -14 -3 -6 -6z"/>
<path d="M2012 2280 c0 -19 2 -27 5 -17 2 9 2 25 0 35 -3 9 -5 1 -5 -18z"/>
<path d="M2382 2280 c0 -19 2 -27 5 -17 2 9 2 25 0 35 -3 9 -5 1 -5 -18z"/>
<path d="M2752 2280 c0 -19 2 -27 5 -17 2 9 2 25 0 35 -3 9 -5 1 -5 -18z"/>
<path d="M3480 2290 c0 -6 7 -10 15 -10 8 0 15 2 15 4 0 2 -7 6 -15 10 -8 3
-15 1 -15 -4z"/>
<path d="M753 2255 c0 -22 2 -30 4 -17 2 12 2 30 0 40 -3 9 -5 -1 -4 -23z"/>
<path d="M1368 2283 c12 -2 30 -2 40 0 9 3 -1 5 -23 4 -22 0 -30 -2 -17 -4z"/>
<path d="M1593 2255 c0 -22 2 -30 4 -17 2 12 2 30 0 40 -3 9 -5 -1 -4 -23z"/>
<path d="M3523 2235 c0 -22 2 -30 4 -17 2 12 2 30 0 40 -3 9 -5 -1 -4 -23z"/>
<path d="M3553 2230 c0 -25 2 -35 4 -22 2 12 2 32 0 45 -2 12 -4 2 -4 -23z"/>
<path d="M4193 2263 c9 -2 23 -2 30 0 6 3 -1 5 -18 5 -16 0 -22 -2 -12 -5z"/>
<path d="M1529 2243 c-13 -16 -12 -17 4 -4 9 7 17 15 17 17 0 8 -8 3 -21 -13z"/>
<path d="M3758 2253 c7 -3 16 -2 19 1 4 3 -2 6 -13 5 -11 0 -14 -3 -6 -6z"/>
<path d="M1018 2243 c7 -3 16 -2 19 1 4 3 -2 6 -13 5 -11 0 -14 -3 -6 -6z"/>
<path d="M1183 2215 c0 -22 2 -30 4 -17 2 12 2 30 0 40 -3 9 -5 -1 -4 -23z"/>
<path d="M4264 2165 c0 -49 1 -71 3 -48 2 23 2 64 0 90 -2 26 -3 8 -3 -42z"/>
<path d="M1948 2233 c7 -3 16 -2 19 1 4 3 -2 6 -13 5 -11 0 -14 -3 -6 -6z"/>
<path d="M2058 2233 c23 -2 59 -2 80 0 20 2 1 4 -43 4 -44 0 -61 -2 -37 -4z"/>
<path d="M2808 2233 c23 -2 59 -2 80 0 20 2 1 4 -43 4 -44 0 -61 -2 -37 -4z"/>
<path d="M993 2190 c0 -25 2 -35 4 -22 2 12 2 32 0 45 -2 12 -4 2 -4 -23z"/>
<path d="M1818 2223 c12 -2 32 -2 45 0 12 2 2 4 -23 4 -25 0 -35 -2 -22 -4z"/>
<path d="M2998 2223 c6 -2 18 -2 25 0 6 3 1 5 -13 5 -14 0 -19 -2 -12 -5z"/>
<path d="M1633 2213 c15 -2 39 -2 55 0 15 2 2 4 -28 4 -30 0 -43 -2 -27 -4z"/>
<path d="M3183 2213 c15 -2 37 -2 50 0 12 2 0 4 -28 4 -27 0 -38 -2 -22 -4z"/>
<path d="M3922 2200 c0 -14 2 -19 5 -12 2 6 2 18 0 25 -3 6 -5 1 -5 -13z"/>
<path d="M4118 2203 c6 -2 18 -2 25 0 6 3 1 5 -13 5 -14 0 -19 -2 -12 -5z"/>
<path d="M1413 2193 c9 -2 25 -2 35 0 9 3 1 5 -18 5 -19 0 -27 -2 -17 -5z"/>
<path d="M3423 2193 c9 -2 25 -2 35 0 9 3 1 5 -18 5 -19 0 -27 -2 -17 -5z"/>
<path d="M618 2183 c7 -3 16 -2 19 1 4 3 -2 6 -13 5 -11 0 -14 -3 -6 -6z"/>
<path d="M1308 2183 c12 -2 30 -2 40 0 9 3 -1 5 -23 4 -22 0 -30 -2 -17 -4z"/>
<path d="M3603 2173 c9 -2 23 -2 30 0 6 3 -1 5 -18 5 -16 0 -22 -2 -12 -5z"/>
<path d="M1148 2163 c7 -3 16 -2 19 1 4 3 -2 6 -13 5 -11 0 -14 -3 -6 -6z"/>
<path d="M3683 2163 c9 -2 23 -2 30 0 6 3 -1 5 -18 5 -16 0 -22 -2 -12 -5z"/>
<path d="M1083 2153 c9 -2 23 -2 30 0 6 3 -1 5 -18 5 -16 0 -22 -2 -12 -5z"/>
<path d="M3753 2153 c9 -2 23 -2 30 0 6 3 -1 5 -18 5 -16 0 -22 -2 -12 -5z"/>
<path d="M1018 2143 c6 -2 18 -2 25 0 6 3 1 5 -13 5 -14 0 -19 -2 -12 -5z"/>
<path d="M4008 2113 c6 -2 18 -2 25 0 6 3 1 5 -13 5 -14 0 -19 -2 -12 -5z"/>
<path d="M4068 2103 c7 -3 16 -2 19 1 4 3 -2 6 -13 5 -11 0 -14 -3 -6 -6z"/>
<path d="M728 2093 c6 -2 18 -2 25 0 6 3 1 5 -13 5 -14 0 -19 -2 -12 -5z"/>
<path d="M4118 2093 c7 -3 16 -2 19 1 4 3 -2 6 -13 5 -11 0 -14 -3 -6 -6z"/>
<path d="M678 2083 c7 -3 16 -2 19 1 4 3 -2 6 -13 5 -11 0 -14 -3 -6 -6z"/>
<path d="M4168 2083 c7 -3 16 -2 19 1 4 3 -2 6 -13 5 -11 0 -14 -3 -6 -6z"/>
<path d="M628 2073 c7 -3 16 -2 19 1 4 3 -2 6 -13 5 -11 0 -14 -3 -6 -6z"/>
<path d="M4218 2073 c7 -3 16 -2 19 1 4 3 -2 6 -13 5 -11 0 -14 -3 -6 -6z"/>
<path d="M2464 1980 c0 -74 1 -105 3 -67 2 37 2 97 0 135 -2 37 -3 6 -3 -68z"/>
<path d="M2623 2060 c0 -30 2 -43 4 -27 2 15 2 39 0 55 -2 15 -4 2 -4 -28z"/>
<path d="M1661 2084 c0 -11 3 -14 6 -6 3 7 2 16 -1 19 -3 4 -6 -2 -5 -13z"/>
<path d="M1924 1970 c0 -74 1 -105 3 -67 2 37 2 97 0 135 -2 37 -3 6 -3 -68z"/>
<path d="M2694 1975 c0 -71 1 -99 3 -62 2 37 2 96 0 130 -2 34 -3 4 -3 -68z"/>
<path d="M1789 2063 l-24 -28 28 24 c25 23 32 31 24 31 -2 0 -14 -12 -28 -27z"/>
<path d="M1782 2026 c-22 -24 -44 -41 -48 -38 -4 4 -4 1 0 -6 4 -7 11 -10 16
-7 4 3 25 -17 45 -45 20 -27 39 -50 41 -50 2 0 4 43 4 95 0 52 -4 95 -9 95 -5
0 -27 -20 -49 -44z"/>
<path d="M2294 2034 c-10 -8 -13 -12 -6 -9 8 4 26 11 40 15 22 7 23 8 6 9 -11
1 -29 -6 -40 -15z"/>
<path d="M2414 2038 c-4 -7 -3 -8 4 -4 19 12 14 -9 -7 -28 -14 -13 -20 -14
-29 -4 -6 7 -10 17 -10 21 0 5 -4 12 -8 15 -4 4 -4 1 0 -5 5 -9 -1 -11 -22 -7
-19 4 -32 1 -41 -10 -7 -9 -16 -14 -20 -12 -8 5 -7 -66 1 -80 9 -14 66 -6 96
14 21 14 25 13 47 -8 l25 -23 0 65 c0 49 -4 67 -15 71 -8 4 -17 1 -21 -5z
m-120 -104 c3 -8 2 -12 -4 -9 -6 3 -10 10 -10 16 0 14 7 11 14 -7z"/>
<path d="M2104 1945 c0 -55 1 -76 3 -47 2 29 2 74 0 100 -2 26 -3 2 -3 -53z"/>
<path d="M2191 2004 c0 -11 3 -14 6 -6 3 7 2 16 -1 19 -3 4 -6 -2 -5 -13z"/>
<path d="M2191 1944 c0 -11 3 -14 6 -6 3 7 2 16 -1 19 -3 4 -6 -2 -5 -13z"/>
<path d="M1665 1930 c-3 -6 1 -7 9 -4 18 7 21 14 7 14 -6 0 -13 -4 -16 -10z"/>
<path d="M2383 1929 c-6 -6 -26 -15 -45 -19 -29 -7 -30 -8 -7 -9 15 -1 37 8
50 19 13 10 22 19 19 20 -4 0 -11 -5 -17 -11z"/>
<path d="M2623 1890 c0 -30 2 -43 4 -27 2 15 2 39 0 55 -2 15 -4 2 -4 -28z"/>
<path d="M2200 1911 c0 -6 4 -13 10 -16 6 -3 7 1 4 9 -7 18 -14 21 -14 7z"/>
<path d="M1662 1875 c0 -16 2 -22 5 -12 2 9 2 23 0 30 -3 6 -5 -1 -5 -18z"/>
<path d="M1800 1886 c0 -2 8 -10 18 -17 15 -13 16 -12 3 4 -13 16 -21 21 -21
13z"/>
<path d="M2390 1850 c-9 -6 -10 -10 -3 -10 6 0 15 5 18 10 8 12 4 12 -15 0z"/>
<path d="M2308 1833 c12 -2 32 -2 45 0 12 2 2 4 -23 4 -25 0 -35 -2 -22 -4z"/>
<path d="M2942 2080 c0 -14 2 -19 5 -12 2 6 2 18 0 25 -3 6 -5 1 -5 -13z"/>
<path d="M3143 2035 c0 -38 2 -53 4 -32 2 20 2 52 0 70 -2 17 -4 1 -4 -38z"/>
<path d="M2812 2030 c0 -14 2 -19 5 -12 2 6 2 18 0 25 -3 6 -5 1 -5 -13z"/>
<path d="M2940 1975 c0 -30 5 -55 10 -55 6 0 10 25 10 55 0 30 -4 55 -10 55
-5 0 -10 -25 -10 -55z"/>
<path d="M2811 1923 c-1 -22 2 -23 67 -21 l67 2 -62 3 c-48 3 -63 8 -66 21 -3
12 -5 11 -6 -5z"/>
<path d="M3080 1936 c0 -2 8 -10 18 -17 15 -13 16 -12 3 4 -13 16 -21 21 -21
13z"/>
<path d="M3110 1896 c0 -2 8 -10 18 -17 15 -13 16 -12 3 4 -13 16 -21 21 -21
13z"/>
<path d="M3620 1976 c-96 -23 -187 -45 -202 -49 -19 -5 -28 -14 -28 -27 0 -11
2 -20 4 -20 12 0 430 102 438 106 17 11 7 34 -14 33 -13 0 -102 -20 -198 -43z"/>
<path d="M3611 1864 c-192 -43 -224 -55 -205 -74 8 -8 389 70 414 85 14 9 12
35 -2 34 -7 -1 -100 -21 -207 -45z"/>
<path d="M3618 1766 c-104 -18 -191 -36 -195 -39 -4 -4 -2 -12 4 -18 8 -8 64
-2 200 20 103 18 192 36 197 41 9 9 0 31 -12 29 -4 -1 -91 -16 -194 -33z"/>
<path d="M2980 3370 c8 -5 28 -10 44 -10 39 0 30 6 -19 13 -27 4 -35 3 -25 -3z"/>
<path d="M3108 3343 c7 -3 16 -2 19 1 4 3 -2 6 -13 5 -11 0 -14 -3 -6 -6z"/>
<path d="M3158 3333 c7 -3 16 -2 19 1 4 3 -2 6 -13 5 -11 0 -14 -3 -6 -6z"/>
<path d="M3068 3323 c6 -2 18 -2 25 0 6 3 1 5 -13 5 -14 0 -19 -2 -12 -5z"/>
<path d="M3198 3323 c7 -3 16 -2 19 1 4 3 -2 6 -13 5 -11 0 -14 -3 -6 -6z"/>
<path d="M3128 3313 c7 -3 16 -2 19 1 4 3 -2 6 -13 5 -11 0 -14 -3 -6 -6z"/>
<path d="M3238 3313 c7 -3 16 -2 19 1 4 3 -2 6 -13 5 -11 0 -14 -3 -6 -6z"/>
<path d="M3178 3303 c7 -3 16 -2 19 1 4 3 -2 6 -13 5 -11 0 -14 -3 -6 -6z"/>
<path d="M3278 3303 c7 -3 16 -2 19 1 4 3 -2 6 -13 5 -11 0 -14 -3 -6 -6z"/>
<path d="M3218 3293 c6 -2 18 -2 25 0 6 3 1 5 -13 5 -14 0 -19 -2 -12 -5z"/>
<path d="M3318 3293 c7 -3 16 -2 19 1 4 3 -2 6 -13 5 -11 0 -14 -3 -6 -6z"/>
<path d="M3268 3283 c7 -3 16 -2 19 1 4 3 -2 6 -13 5 -11 0 -14 -3 -6 -6z"/>
<path d="M3358 3283 c7 -3 16 -2 19 1 4 3 -2 6 -13 5 -11 0 -14 -3 -6 -6z"/>
<path d="M3308 3273 c7 -3 16 -2 19 1 4 3 -2 6 -13 5 -11 0 -14 -3 -6 -6z"/>
<path d="M3348 3263 c7 -3 16 -2 19 1 4 3 -2 6 -13 5 -11 0 -14 -3 -6 -6z"/>
<path d="M3428 3263 c7 -3 16 -2 19 1 4 3 -2 6 -13 5 -11 0 -14 -3 -6 -6z"/>
<path d="M3388 3253 c7 -3 16 -2 19 1 4 3 -2 6 -13 5 -11 0 -14 -3 -6 -6z"/>
<path d="M3428 3243 c7 -3 16 -2 19 1 4 3 -2 6 -13 5 -11 0 -14 -3 -6 -6z"/>
<path d="M3468 3233 c7 -3 16 -2 19 1 4 3 -2 6 -13 5 -11 0 -14 -3 -6 -6z"/>
<path d="M3545 3220 c-13 -5 -14 -9 -5 -9 8 0 24 4 35 9 13 5 14 9 5 9 -8 0
-24 -4 -35 -9z"/>
<path d="M3133 3193 c31 -2 83 -2 115 0 31 2 5 3 -58 3 -63 0 -89 -1 -57 -3z"/>
<path d="M3003 3183 c9 -2 25 -2 35 0 9 3 1 5 -18 5 -19 0 -27 -2 -17 -5z"/>
<path d="M3343 3183 c9 -2 25 -2 35 0 9 3 1 5 -18 5 -19 0 -27 -2 -17 -5z"/>
<path d="M3680 3180 c-8 -5 -10 -10 -5 -10 6 0 17 5 25 10 8 5 11 10 5 10 -5
0 -17 -5 -25 -10z"/>
<path d="M2934 3166 c-3 -8 -4 -29 -1 -48 3 -30 4 -30 5 9 2 35 6 42 25 46
l22 4 -23 2 c-12 0 -25 -5 -28 -13z"/>
<path d="M3418 3173 c6 -2 18 -2 25 0 6 3 1 5 -13 5 -14 0 -19 -2 -12 -5z"/>
<path d="M3710 3170 c-8 -5 -10 -10 -5 -10 6 0 17 5 25 10 8 5 11 10 5 10 -5
0 -17 -5 -25 -10z"/>
<path d="M1981 3154 c0 -11 3 -14 6 -6 3 7 2 16 -1 19 -3 4 -6 -2 -5 -13z"/>
<path d="M3478 3163 c7 -3 16 -2 19 1 4 3 -2 6 -13 5 -11 0 -14 -3 -6 -6z"/>
<path d="M3518 3153 c6 -2 18 -2 25 0 6 3 1 5 -13 5 -14 0 -19 -2 -12 -5z"/>
<path d="M3178 3143 c12 -2 32 -2 45 0 12 2 2 4 -23 4 -25 0 -35 -2 -22 -4z"/>
<path d="M3363 3143 c15 -2 39 -2 55 0 15 2 2 4 -28 4 -30 0 -43 -2 -27 -4z"/>
<path d="M3568 3143 c7 -3 16 -2 19 1 4 3 -2 6 -13 5 -11 0 -14 -3 -6 -6z"/>
<path d="M3118 3133 c6 -2 18 -2 25 0 6 3 1 5 -13 5 -14 0 -19 -2 -12 -5z"/>
<path d="M3473 3133 c9 -2 23 -2 30 0 6 3 -1 5 -18 5 -16 0 -22 -2 -12 -5z"/>
<path d="M3822 3131 c-11 -6 -10 -10 4 -15 9 -3 19 -4 22 -1 3 3 -1 5 -9 5
-11 0 -11 2 1 10 8 5 11 10 5 10 -5 0 -16 -4 -23 -9z"/>
<path d="M3078 3123 c7 -3 16 -2 19 1 4 3 -2 6 -13 5 -11 0 -14 -3 -6 -6z"/>
<path d="M3538 3123 c6 -2 18 -2 25 0 6 3 1 5 -13 5 -14 0 -19 -2 -12 -5z"/>
<path d="M3638 3123 c7 -3 16 -2 19 1 4 3 -2 6 -13 5 -11 0 -14 -3 -6 -6z"/>
<path d="M3598 3113 c7 -3 16 -2 19 1 4 3 -2 6 -13 5 -11 0 -14 -3 -6 -6z"/>
<path d="M3650 3110 c-21 -7 -21 -8 -5 -9 11 0 27 4 35 9 18 11 5 11 -30 0z"/>
<path d="M3168 3103 c18 -2 45 -2 60 0 15 2 0 4 -33 4 -33 0 -45 -2 -27 -4z"/>
<path d="M3690 3100 c-13 -8 -13 -10 2 -10 9 0 20 5 23 10 8 13 -5 13 -25 0z"/>
<path d="M3078 3093 c7 -3 16 -2 19 1 4 3 -2 6 -13 5 -11 0 -14 -3 -6 -6z"/>
<path d="M3318 3093 c12 -2 32 -2 45 0 12 2 2 4 -23 4 -25 0 -35 -2 -22 -4z"/>
<path d="M3730 3090 c-9 -6 -10 -10 -3 -10 6 0 15 5 18 10 8 12 4 12 -15 0z"/>
<path d="M3423 3083 c9 -2 23 -2 30 0 6 3 -1 5 -18 5 -16 0 -22 -2 -12 -5z"/>
<path d="M3760 3080 c0 -5 5 -10 10 -10 6 0 10 5 10 10 0 6 -4 10 -10 10 -5 0
-10 -4 -10 -10z"/>
<path d="M3920 3080 c8 -5 20 -10 25 -10 6 0 3 5 -5 10 -8 5 -19 10 -25 10 -5
0 -3 -5 5 -10z"/>
<path d="M3488 3073 c6 -2 18 -2 25 0 6 3 1 5 -13 5 -14 0 -19 -2 -12 -5z"/>
<path d="M3790 3074 c0 -9 112 -46 118 -39 2 1 -16 10 -40 18 -24 8 -51 18
-60 22 -10 4 -18 3 -18 -1z"/>
<path d="M3990 3070 c8 -5 20 -10 25 -10 6 0 3 5 -5 10 -8 5 -19 10 -25 10 -5
0 -3 -5 5 -10z"/>
<path d="M2933 3035 c0 -22 2 -30 4 -17 2 12 2 30 0 40 -3 9 -5 -1 -4 -23z"/>
<path d="M3548 3063 c6 -2 18 -2 25 0 6 3 1 5 -13 5 -14 0 -19 -2 -12 -5z"/>
<path d="M3598 3053 c6 -2 18 -2 25 0 6 3 1 5 -13 5 -14 0 -19 -2 -12 -5z"/>
<path d="M3648 3043 c6 -2 18 -2 25 0 6 3 1 5 -13 5 -14 0 -19 -2 -12 -5z"/>
<path d="M3698 3033 c7 -3 16 -2 19 1 4 3 -2 6 -13 5 -11 0 -14 -3 -6 -6z"/>
<path d="M4021 3036 c10 -9 89 -46 89 -41 0 5 -75 45 -86 45 -4 0 -5 -2 -3 -4z"/>
<path d="M3738 3023 c7 -3 16 -2 19 1 4 3 -2 6 -13 5 -11 0 -14 -3 -6 -6z"/>
<path d="M3930 3020 c8 -5 20 -10 25 -10 6 0 3 5 -5 10 -8 5 -19 10 -25 10 -5
0 -3 -5 5 -10z"/>
<path d="M3778 3013 c7 -3 16 -2 19 1 4 3 -2 6 -13 5 -11 0 -14 -3 -6 -6z"/>
<path d="M3818 3003 c7 -3 16 -2 19 1 4 3 -2 6 -13 5 -11 0 -14 -3 -6 -6z"/>
<path d="M4150 2996 c0 -3 9 -10 20 -16 11 -6 20 -8 20 -6 0 3 -9 10 -20 16
-11 6 -20 8 -20 6z"/>
<path d="M2921 2974 c0 -11 3 -14 6 -6 3 7 2 16 -1 19 -3 4 -6 -2 -5 -13z"/>
<path d="M3918 2973 c7 -3 16 -2 19 1 4 3 -2 6 -13 5 -11 0 -14 -3 -6 -6z"/>
<path d="M1991 2960 c0 -8 4 -22 9 -30 12 -18 12 -2 0 25 -6 13 -9 15 -9 5z"/>
<path d="M4160 2966 c0 -3 9 -10 20 -16 11 -6 20 -8 20 -6 0 3 -9 10 -20 16
-11 6 -20 8 -20 6z"/>
<path d="M3990 2950 c8 -5 20 -10 25 -10 6 0 3 5 -5 10 -8 5 -19 10 -25 10 -5
0 -3 -5 5 -10z"/>
<path d="M2910 2941 c0 -5 -3 -16 -6 -25 -5 -14 3 -16 57 -14 l64 2 -56 3
c-51 4 -56 6 -52 23 3 11 3 20 -1 20 -3 0 -6 -4 -6 -9z"/>
<path d="M4260 2926 c14 -18 13 -19 -2 -13 -26 9 -22 2 10 -19 19 -13 24 -13
15 -2 -7 8 -11 17 -8 20 3 3 -3 11 -12 19 -17 13 -17 13 -3 -5z"/>
<path d="M3198 2913 c39 -2 105 -2 145 0 39 1 7 3 -73 3 -80 0 -112 -2 -72 -3z"/>
<path d="M3548 2903 c23 -2 59 -2 80 0 20 2 1 4 -43 4 -44 0 -61 -2 -37 -4z"/>
<path d="M4120 2900 c8 -5 20 -10 25 -10 6 0 3 5 -5 10 -8 5 -19 10 -25 10 -5
0 -3 -5 5 -10z"/>
<path d="M4296 2900 c5 -8 9 -18 9 -22 0 -5 4 -8 8 -9 18 -2 16 9 -5 27 -13
11 -18 13 -12 4z"/>
<path d="M3723 2893 c15 -2 37 -2 50 0 12 2 0 4 -28 4 -27 0 -38 -2 -22 -4z"/>
<path d="M3828 2883 c12 -2 30 -2 40 0 9 3 -1 5 -23 4 -22 0 -30 -2 -17 -4z"/>
<path d="M3913 2873 c9 -2 23 -2 30 0 6 3 -1 5 -18 5 -16 0 -22 -2 -12 -5z"/>
<path d="M3978 2863 c6 -2 18 -2 25 0 6 3 1 5 -13 5 -14 0 -19 -2 -12 -5z"/>
<path d="M4201 2866 c10 -9 69 -36 69 -32 0 6 -55 36 -66 36 -4 0 -5 -2 -3 -4z"/>
<path d="M4028 2853 c6 -2 18 -2 25 0 6 3 1 5 -13 5 -14 0 -19 -2 -12 -5z"/>
<path d="M4280 2856 c0 -3 9 -10 20 -16 11 -6 20 -8 20 -6 0 3 -9 10 -20 16
-11 6 -20 8 -20 6z"/>
<path d="M4078 2843 c7 -3 16 -2 19 1 4 3 -2 6 -13 5 -11 0 -14 -3 -6 -6z"/>
<path d="M4118 2833 c7 -3 16 -2 19 1 4 3 -2 6 -13 5 -11 0 -14 -3 -6 -6z"/>
<path d="M4380 2816 c0 -2 8 -10 18 -17 15 -13 16 -12 3 4 -13 16 -21 21 -21
13z"/>
<path d="M4231 2796 c2 -2 15 -9 29 -15 24 -11 24 -11 6 3 -16 13 -49 24 -35
12z"/>
<path d="M4340 2725 c13 -14 26 -25 28 -25 3 0 -5 11 -18 25 -13 14 -26 25
-28 25 -3 0 5 -11 18 -25z"/>
<path d="M4443 2670 c0 -25 2 -35 4 -22 2 12 2 32 0 45 -2 12 -4 2 -4 -23z"/>
<path d="M4405 2554 c-9 -15 -12 -23 -6 -20 11 7 35 46 28 46 -3 0 -12 -12
-22 -26z"/>
<path d="M4364 2498 l-19 -23 23 19 c21 18 27 26 19 26 -2 0 -12 -10 -23 -22z"/>
<path d="M4301 2466 c-17 -18 -19 -24 -7 -22 19 3 29 12 32 31 3 20 1 19 -25
-9z"/>
<path d="M4229 2403 c-13 -15 -12 -15 9 -4 23 12 28 21 13 21 -5 0 -15 -7 -22
-17z"/>
</g>
</svg>
